<svg width="603" height="283" viewBox="0 0 603 283" fill="none" xmlns="http://www.w3.org/2000/svg">
<path d="M0.576 262V261.04H0.672C2.976 261.04 4.832 260.336 6.24 258.928C7.648 257.52 8.352 255.664 8.352 253.36V221.872C8.352 219.44 7.84 217.552 6.816 216.208C5.856 214.864 3.776 214.192 0.576 214.192V213.232H10.08C13.344 213.232 15.84 212.88 17.568 212.176C19.168 211.472 20.288 210.608 20.928 209.584H21.888L21.984 223.024C23.648 219.696 26.176 217.008 29.568 214.96C32.96 212.912 36.544 211.888 40.32 211.888C44.608 211.888 48.032 213.296 50.592 216.112C53.216 218.928 54.528 222.64 54.528 227.248V253.36C54.528 255.664 55.232 257.52 56.64 258.928C58.048 260.336 59.904 261.04 62.208 261.04H62.304V262H33.024V261.04H33.12C35.424 261.04 37.28 260.336 38.688 258.928C40.096 257.52 40.8 255.664 40.8 253.36V226.288C40.8 223.088 40.16 220.528 38.88 218.608C37.664 216.688 36.032 215.728 33.984 215.728C32 215.728 29.92 216.592 27.744 218.32C25.632 219.984 23.776 222.256 22.176 225.136V253.36C22.176 255.664 22.88 257.52 24.288 258.928C25.696 260.336 27.552 261.04 29.856 261.04H29.952V262H0.576ZM84.201 283.504C77.417 283.504 71.913 282.576 67.689 280.72C63.529 278.928 61.449 276.56 61.449 273.616C61.449 271.376 62.505 269.36 64.617 267.568C66.793 265.84 69.737 264.496 73.449 263.536C67.433 262 64.425 259.28 64.425 255.376C64.425 253.264 65.257 251.312 66.921 249.52C68.585 247.664 70.921 246.192 73.929 245.104C70.729 243.696 68.233 241.648 66.441 238.96C64.713 236.272 63.849 233.104 63.849 229.456C63.849 224.144 65.673 219.888 69.321 216.688C73.033 213.488 77.993 211.888 84.201 211.888C87.145 211.888 90.025 212.336 92.841 213.232H110.505L109.545 214.96H96.489C99.049 216.432 101.001 218.416 102.345 220.912C103.753 223.344 104.457 226.192 104.457 229.456C104.457 234.768 102.633 239.056 98.985 242.32C95.401 245.52 90.473 247.12 84.201 247.12C80.745 247.12 77.705 246.608 75.081 245.584C73.033 246.672 72.009 247.952 72.009 249.424C72.009 250.704 72.905 251.568 74.697 252.016C75.593 252.272 76.873 252.496 78.537 252.688C80.201 252.88 82.217 253.008 84.585 253.072L87.945 253.264C95.305 253.52 100.969 254.928 104.937 257.488C108.969 260.048 110.985 263.536 110.985 267.952C110.985 272.88 108.617 276.688 103.881 279.376C99.145 282.128 92.585 283.504 84.201 283.504ZM84.105 245.968C86.089 245.968 87.721 244.464 89.001 241.456C90.153 238.448 90.729 234.448 90.729 229.456C90.729 224.4 90.153 220.4 89.001 217.456C87.785 214.576 86.185 213.136 84.201 213.136C82.153 213.136 80.553 214.576 79.401 217.456C78.249 220.4 77.673 224.4 77.673 229.456C77.673 234.512 78.249 238.544 79.401 241.552C80.553 244.496 82.121 245.968 84.105 245.968ZM85.257 282.256C88.201 282.256 90.921 281.808 93.417 280.912C95.913 280.08 97.897 278.896 99.369 277.36C100.905 275.824 101.673 274.064 101.673 272.08C101.673 269.904 100.553 268.176 98.313 266.896C95.945 265.68 92.329 265.04 87.465 264.976L84.105 264.784C82.249 264.72 80.521 264.592 78.921 264.4C77.385 264.272 76.009 264.08 74.793 263.824C73.449 264.272 72.457 265.168 71.817 266.512C71.177 267.856 70.857 269.456 70.857 271.312C70.857 274.64 72.105 277.296 74.601 279.28C77.097 281.264 80.649 282.256 85.257 282.256ZM147.731 264.688L147.635 252.304C145.971 255.568 143.443 258.224 140.051 260.272C136.659 262.32 133.075 263.344 129.299 263.344C125.011 263.344 121.555 261.936 118.931 259.12C116.371 256.304 115.091 252.592 115.091 247.984V221.872C115.091 219.44 114.611 217.552 113.651 216.208C112.691 214.864 110.579 214.192 107.314 214.192V213.232H117.011C120.275 213.232 122.771 212.88 124.499 212.176C126.099 211.472 127.219 210.608 127.859 209.584H128.819V248.944C128.819 252.144 129.459 254.704 130.739 256.624C132.019 258.544 133.683 259.504 135.731 259.504C137.715 259.504 139.763 258.672 141.875 257.008C143.987 255.28 145.843 252.976 147.443 250.096V221.872C147.443 219.568 146.867 217.712 145.715 216.304C144.563 214.896 142.579 214.192 139.763 214.192V213.232H149.459C152.723 213.232 155.219 212.88 156.947 212.176C158.611 211.472 159.763 210.608 160.403 209.584H161.363L161.267 253.36C161.267 255.664 161.971 257.552 163.379 259.024C164.787 260.432 166.643 261.136 168.947 261.136V262H159.443C157.779 262 156.307 262.032 155.027 262.096C153.747 262.224 152.691 262.352 151.859 262.48C150.131 262.864 148.915 263.6 148.211 264.688H147.731ZM167.812 262V261.04H167.909C170.213 261.04 172.069 260.336 173.477 258.928C174.885 257.52 175.589 255.664 175.589 253.36V198.64C175.589 196.336 174.853 194.48 173.381 193.072C171.973 191.664 170.117 190.96 167.812 190.96V190H177.605C180.869 190 183.365 189.648 185.093 188.944C186.693 188.24 187.813 187.376 188.453 186.352H189.413V236.848L205.733 223.12C208.357 220.944 209.925 218.992 210.437 217.264C210.821 215.664 210.405 214.736 209.189 214.48L207.941 214.192V213.232H222.245V214.192L221.285 214.384C219.749 214.64 218.149 215.28 216.485 216.304C214.885 217.328 212.549 219.12 209.477 221.68L202.853 227.248L221.957 256.624C223.173 258.224 224.229 259.376 225.125 260.08C226.021 260.72 227.013 261.04 228.101 261.04V262H202.757V261.04C204.357 261.04 205.413 260.912 205.925 260.656C206.501 260.464 206.789 260.048 206.789 259.408C206.789 258.832 206.565 258.096 206.117 257.2C205.861 256.688 205.541 256.112 205.157 255.472C204.837 254.768 204.421 254 203.909 253.168L192.965 235.6L189.413 238.672V253.36C189.413 255.664 190.117 257.52 191.525 258.928C192.933 260.336 194.789 261.04 197.093 261.04H197.189V262H167.812ZM261.731 264.688L261.635 252.304C259.971 255.568 257.443 258.224 254.051 260.272C250.659 262.32 247.075 263.344 243.299 263.344C239.011 263.344 235.555 261.936 232.931 259.12C230.371 256.304 229.091 252.592 229.091 247.984V221.872C229.091 219.44 228.611 217.552 227.651 216.208C226.691 214.864 224.579 214.192 221.314 214.192V213.232H231.011C234.275 213.232 236.771 212.88 238.499 212.176C240.099 211.472 241.219 210.608 241.859 209.584H242.819V248.944C242.819 252.144 243.459 254.704 244.739 256.624C246.019 258.544 247.683 259.504 249.731 259.504C251.715 259.504 253.763 258.672 255.875 257.008C257.987 255.28 259.843 252.976 261.443 250.096V221.872C261.443 219.568 260.867 217.712 259.715 216.304C258.563 214.896 256.579 214.192 253.763 214.192V213.232H263.459C266.723 213.232 269.219 212.88 270.947 212.176C272.611 211.472 273.763 210.608 274.403 209.584H275.363L275.267 253.36C275.267 255.664 275.971 257.552 277.379 259.024C278.787 260.432 280.643 261.136 282.947 261.136V262H273.443C271.779 262 270.307 262.032 269.027 262.096C267.747 262.224 266.691 262.352 265.859 262.48C264.131 262.864 262.915 263.6 262.211 264.688H261.731ZM281.92 262V261.04H282.016C284.32 261.04 286.176 260.336 287.584 258.928C288.992 257.52 289.696 255.664 289.696 253.36V221.872C289.696 219.44 289.184 217.552 288.16 216.208C287.2 214.864 285.12 214.192 281.92 214.192V213.232H291.424C294.816 213.232 297.376 212.912 299.104 212.272C300.832 211.568 302.048 210.672 302.752 209.584H303.232L303.328 225.328C304.16 223.408 305.216 221.392 306.496 219.28C307.84 217.168 309.504 215.408 311.488 214C313.536 212.528 315.968 211.792 318.784 211.792C319.744 211.792 320.768 211.888 321.856 212.08C322.944 212.272 324.096 212.624 325.312 213.136L321.568 224.368C319.264 223.088 317.248 222.192 315.52 221.68C313.856 221.168 312.384 220.912 311.104 220.912C308.928 220.912 307.296 221.584 306.208 222.928C305.184 224.272 304.288 225.872 303.52 227.728V253.36C303.52 255.664 304.224 257.52 305.632 258.928C307.04 260.336 308.896 261.04 311.2 261.04H311.296V262H281.92ZM347.404 263.344C345.74 263.344 344.364 263.28 343.276 263.152C342.252 263.024 341.228 262.864 340.204 262.672C339.18 262.48 337.932 262.32 336.46 262.192C334.988 262.064 332.972 262 330.412 262L327.052 237.04H328.204C329.164 244.912 331.34 250.992 334.732 255.28C338.188 259.504 342.604 261.616 347.98 261.616C351.948 261.616 355.18 260.496 357.676 258.256C360.172 256.016 361.42 253.104 361.42 249.52C361.42 247.984 361.132 246.512 360.556 245.104C360.044 243.696 359.148 242.192 357.868 240.592C356.588 238.992 354.892 237.264 352.78 235.408C350.668 233.488 348.044 231.344 344.908 228.976L340.972 226C336.172 222.352 332.844 219.088 330.988 216.208C329.132 213.328 328.204 210.192 328.204 206.8C328.204 201.168 330.252 196.752 334.348 193.552C338.508 190.288 343.98 188.656 350.764 188.656C352.428 188.656 353.772 188.72 354.796 188.848C355.884 188.976 356.908 189.136 357.868 189.328C358.892 189.52 360.076 189.68 361.42 189.808C362.764 189.936 364.492 190 366.604 190L367.564 209.392H366.604C365.708 203.44 363.788 198.736 360.844 195.28C357.9 191.824 354.348 190.096 350.188 190.096C347.244 190.096 344.876 190.96 343.084 192.688C341.356 194.416 340.492 196.72 340.492 199.6C340.492 202.096 341.292 204.496 342.892 206.8C344.556 209.04 347.404 211.664 351.436 214.672L355.564 217.744C359.788 220.816 363.116 223.664 365.548 226.288C368.044 228.848 369.836 231.344 370.924 233.776C372.012 236.208 372.556 238.8 372.556 241.552C372.556 245.776 371.5 249.52 369.388 252.784C367.276 256.048 364.332 258.608 360.556 260.464C356.844 262.256 352.46 263.216 347.404 263.344ZM389.717 263.344C385.813 263.344 382.677 262.288 380.309 260.176C377.941 258.064 376.757 255.28 376.757 251.824C376.757 250.352 377.013 248.976 377.525 247.696C378.037 246.352 378.997 245.04 380.405 243.76C381.877 242.48 383.893 241.168 386.453 239.824C389.013 238.416 392.405 236.944 396.629 235.408L405.557 232.144V224.944C405.557 221.296 404.981 218.416 403.829 216.304C402.677 214.128 401.077 213.04 399.029 213.04C396.597 213.104 394.517 214.704 392.789 217.84C391.125 220.976 390.005 225.328 389.429 230.896L379.061 224.944C380.149 222.32 381.813 220.016 384.053 218.032C386.293 216.048 388.853 214.512 391.733 213.424C394.677 212.336 397.749 211.792 400.949 211.792C406.389 211.792 410.805 213.328 414.197 216.4C417.653 219.408 419.381 223.536 419.381 228.784V251.92C419.381 255.632 420.629 257.488 423.125 257.488C424.597 257.488 426.037 256.688 427.445 255.088L428.213 255.76C426.549 258 424.533 259.824 422.165 261.232C419.797 262.64 417.493 263.344 415.253 263.344C412.821 263.344 410.709 262.512 408.917 260.848C407.189 259.184 406.101 256.976 405.653 254.224C402.517 257.424 399.765 259.76 397.397 261.232C395.093 262.64 392.533 263.344 389.717 263.344ZM396.917 257.392C398.325 257.392 399.669 257.04 400.949 256.336C402.293 255.632 403.797 254.48 405.461 252.88L405.557 233.392L401.717 234.832C398.453 236.048 395.957 237.296 394.229 238.576C392.501 239.792 391.285 241.168 390.581 242.704C389.941 244.24 389.621 246 389.621 247.984C389.621 250.736 390.293 253.008 391.637 254.8C393.045 256.528 394.805 257.392 396.917 257.392ZM443.667 263.536L424.659 219.376C424.019 217.84 423.155 216.624 422.067 215.728C420.979 214.768 419.507 214.256 417.651 214.192V213.232H444.627V214.192C442.387 214.448 440.915 215.44 440.211 217.168C439.507 218.896 439.731 221.072 440.883 223.696L450.771 246.832L458.259 229.456L454.323 219.376C453.747 217.904 452.979 216.688 452.019 215.728C451.059 214.768 449.747 214.256 448.083 214.192V213.232H472.275V214.192C470.227 214.448 468.883 215.44 468.243 217.168C467.667 218.896 467.891 221.072 468.915 223.696L477.747 246.832L486.579 224.272C486.899 223.44 487.123 222.672 487.251 221.968C487.379 221.264 487.443 220.592 487.443 219.952C487.443 218.352 487.027 217.04 486.195 216.016C485.363 214.992 484.147 214.384 482.547 214.192V213.232H496.179V214.192C494.707 214.576 493.267 215.536 491.859 217.072C490.451 218.608 489.203 220.72 488.115 223.408L472.275 263.536H471.507L458.835 231.088L444.627 263.536H443.667ZM505.03 263.344C501.126 263.344 497.99 262.288 495.622 260.176C493.254 258.064 492.07 255.28 492.07 251.824C492.07 250.352 492.326 248.976 492.838 247.696C493.35 246.352 494.31 245.04 495.718 243.76C497.19 242.48 499.206 241.168 501.766 239.824C504.326 238.416 507.718 236.944 511.942 235.408L520.87 232.144V224.944C520.87 221.296 520.294 218.416 519.142 216.304C517.99 214.128 516.39 213.04 514.342 213.04C511.91 213.104 509.83 214.704 508.102 217.84C506.438 220.976 505.318 225.328 504.742 230.896L494.374 224.944C495.462 222.32 497.126 220.016 499.366 218.032C501.606 216.048 504.166 214.512 507.046 213.424C509.99 212.336 513.062 211.792 516.262 211.792C521.702 211.792 526.118 213.328 529.51 216.4C532.966 219.408 534.694 223.536 534.694 228.784V251.92C534.694 255.632 535.942 257.488 538.438 257.488C539.91 257.488 541.35 256.688 542.758 255.088L543.526 255.76C541.862 258 539.846 259.824 537.478 261.232C535.11 262.64 532.806 263.344 530.566 263.344C528.134 263.344 526.022 262.512 524.23 260.848C522.502 259.184 521.414 256.976 520.966 254.224C517.83 257.424 515.078 259.76 512.71 261.232C510.406 262.64 507.846 263.344 505.03 263.344ZM512.23 257.392C513.638 257.392 514.982 257.04 516.262 256.336C517.606 255.632 519.11 254.48 520.774 252.88L520.87 233.392L517.03 234.832C513.766 236.048 511.27 237.296 509.542 238.576C507.814 239.792 506.598 241.168 505.894 242.704C505.254 244.24 504.934 246 504.934 247.984C504.934 250.736 505.606 253.008 506.95 254.8C508.358 256.528 510.118 257.392 512.23 257.392ZM541.969 262V261.04C544.209 261.04 545.873 260.592 546.961 259.696C548.113 258.736 548.849 257.52 549.169 256.048C549.553 254.576 549.745 252.976 549.745 251.248V198.64C549.745 196.336 549.009 194.48 547.537 193.072C546.129 191.664 544.273 190.96 541.969 190.96V190H551.761C555.025 190 557.521 189.648 559.249 188.944C560.849 188.24 561.969 187.376 562.609 186.352H563.569V222.832C565.297 219.44 567.825 216.784 571.153 214.864C574.481 212.88 578.033 211.888 581.809 211.888C584.817 211.888 587.377 212.592 589.489 214C591.601 215.344 593.201 217.168 594.289 219.472C595.441 221.776 596.017 224.368 596.017 227.248V253.36C596.017 255.728 596.721 257.616 598.129 259.024C599.601 260.368 601.489 261.04 603.793 261.04V262H574.513V261.04C576.817 261.04 578.673 260.368 580.081 259.024C581.553 257.616 582.289 255.728 582.289 253.36V226.288C582.289 224.88 582.097 223.376 581.713 221.776C581.329 220.112 580.625 218.704 579.601 217.552C578.641 216.336 577.265 215.728 575.473 215.728C573.809 215.728 572.209 216.24 570.673 217.264C569.201 218.224 567.857 219.44 566.641 220.912C565.425 222.384 564.401 223.856 563.569 225.328V251.248C563.569 252.976 563.729 254.576 564.049 256.048C564.433 257.52 565.169 258.736 566.257 259.696C567.409 260.592 569.105 261.04 571.345 261.04V262H541.969Z" fill="black"/>
<path d="M420 89C450.019 89 477.42 100.209 498.245 118.671C481.435 112.428 463.139 109 444 109C377.492 109 321.164 150.382 302.003 207.512C302.002 207.341 302 207.171 302 207C302 141.83 354.83 89 420 89Z" fill="#B1DD9E"/>
<path d="M184.245 89C154.226 89 126.825 100.209 106 118.671C122.81 112.428 141.106 109 160.245 109C226.753 109 283.081 150.382 302.242 207.512C302.243 207.341 302.245 207.171 302.245 207C302.245 141.83 249.415 89 184.245 89Z" fill="#B1DD9E"/>
<path d="M265.464 41.8097C240.09 25.7693 210.939 20.6028 183.471 25.0799C201.016 28.7853 218.313 35.664 234.491 45.8909C290.708 81.4288 316.208 146.506 301.877 205.035C301.969 204.891 302.062 204.748 302.153 204.604C336.976 149.518 320.55 76.6326 265.464 41.8097Z" fill="#B1DD9E"/>
</svg>
